<?xml version="1.0" encoding="UTF-8"?>
<svg xmlns="http://www.w3.org/2000/svg" version="1.1" viewBox="0 0 93.5 93.4">
  <defs>
    <style>
      .cls-1 {
        fill: #24ce70;
      }

      .cls-2 {
        fill: #00b29f;
      }
    </style>
  </defs>
  <!-- Generator: Adobe Illustrator 28.7.2, SVG Export Plug-In . SVG Version: 1.2.0 Build 154)  -->
  <g>
    <g id="Layer_1">
      <path class="cls-2" d="M47.8,45.1c-4-1-5.3-2.1-5.3-3.8s1.8-3.3,4.8-3.3,3.8,1,4.2,2.5c.2.7.8,1.2,1.5,1.2h.5c.9,0,1.7-.7,1.7-1.7s0-.4,0-.6c-.7-2.1-2.5-3.8-5.2-4.5v-1.2c0-1.5-1.2-2.6-2.6-2.6s-2.7,1.3-2.7,2.8v1.2c-3.4.7-6.2,3-6.2,6.4s3.4,6.1,8.3,7.3c4.4,1.1,5.3,2.6,5.3,4.3s-.9,3.2-4.8,3.2-4.4-1-5-2.5c-.2-.7-.9-1.2-1.6-1.2h-.5c-.9,0-1.7.7-1.7,1.7s0,.4,0,.6c1,2.4,3.3,3.9,6,4.5v1.2c0,1.5,1.2,2.6,2.6,2.6s2.6-1.2,2.6-2.6v-1.1c3.4-.6,6.2-2.6,6.2-6.2.1-5.4-4.1-7.1-8.1-8.2Z"/>
      <path class="cls-2" d="M42,76v14.4c0,1.9-1.7,3.3-3.5,3C16.6,89.4,0,70.2,0,47.1s3-18.8,8.1-26.4c1.1-1.6,3.3-1.8,4.6-.5l10.2,10.2c1,1,1.1,2.4.5,3.6-2.1,3.9-3.3,8.3-3.3,13,0,12.4,8.3,22.8,19.7,26,1.3.4,2.2,1.6,2.2,3Z"/>
      <path class="cls-2" d="M76,41.8c-1.3,0-2.5-.9-2.9-2.2-3.2-11.3-13.6-19.5-26-19.5s-9.3,1.2-13.2,3.4c-1.2.7-2.7.5-3.6-.5l-10.2-10.2c-1.3-1.3-1.1-3.5.5-4.6C28.1,3,37.3,0,47.2,0c23,0,42.1,16.4,46.2,38.2.4,1.9-1,3.6-2.9,3.6h-14.5Z"/>
      <path class="cls-1" d="M93.4,55.7c-3.5,19-18.5,34-37.4,37.6-1.8.3-3.5-1.1-3.5-3v-14.4c0-1.3.9-2.5,2.2-2.9,8.9-2.6,16-9.7,18.5-18.6.4-1.3,1.5-2.2,2.9-2.2h14.4c1.8,0,3.2,1.7,2.9,3.5Z"/>
    </g>
  </g>
</svg>